<svg xmlns="http://www.w3.org/2000/svg" xmlns:xlink="http://www.w3.org/1999/xlink" version="1.1" x="0px" y="0px" viewBox="0 0 100 100" enable-background="new 0 0 100 100" xml:space="preserve"><g><path id="time-3-icon" fill-rule="evenodd" clip-rule="evenodd" d="M87.855,43.318c-5.418,6.554-14.647,10.87-25.124,10.87   c-1.97,0-3.896-0.152-5.76-0.443c-1.601-0.25-2.831-1.355-3.249-2.92c-0.418-1.566,0.096-3.138,1.357-4.153   c5.183-4.169,8.5-10.563,8.5-17.733c0-12.564-10.186-22.75-22.75-22.75c-10.037,0-18.549,8.678-21.571,16.834l-8.064-3.43   c-0.962-0.41-1.98-0.313-2.848,0.269c-0.868,0.583-1.343,1.488-1.33,2.534c0.041,3.089,1.32,5.879,3.363,7.896   c-0.615,0.094-1.19,0.361-1.661,0.835c-0.758,0.765-1.042,1.786-0.785,2.832c0.707,2.879,4.981,5.093,10.147,5.093   c0.908,0,1.783-0.074,2.621-0.203c0.734,1.057,1.57,1.967,2.443,2.873c0.488,0.505,0.669,1.168,0.507,1.852   c-0.162,0.684-0.625,1.194-1.288,1.427C0.753,52.563-7.266,93.813,46.047,93.813c20.539,0,48.158-9.283,48.158-34.063   C94.205,53.424,91.801,47.658,87.855,43.318z M29.467,21.443c-1.673,2.325-3.915,3.574-5.008,2.787   c-1.093-0.786-0.624-3.309,1.05-5.635c1.673-2.326,3.915-3.574,5.008-2.787C31.609,16.593,31.14,19.117,29.467,21.443z"/><ellipse transform="matrix(-0.8119 -0.5838 0.5838 -0.8119 35.5157 54.4005)" fill-rule="evenodd" clip-rule="evenodd" cx="26.521" cy="21.479" rx="1.268" ry="2.698"/></g></svg>